<svg width="20" height="20" viewBox="0 0 20 20" fill="none" xmlns="http://www.w3.org/2000/svg">
<path d="M9.95332 15.7027C10.28 15.7027 10.5563 15.5882 10.7821 15.3593C11.0074 15.131 11.12 14.8513 11.12 14.5203C11.12 14.1892 11.0074 13.9095 10.7821 13.6812C10.5563 13.4523 10.28 13.3378 9.95332 13.3378C9.62666 13.3378 9.35039 13.4523 9.12452 13.6812C8.89928 13.9095 8.78666 14.1892 8.78666 14.5203C8.78666 14.8513 8.89928 15.131 9.12452 15.3593C9.35039 15.5882 9.62666 15.7027 9.95332 15.7027ZM10.0933 5.95946C10.5289 5.95946 10.8789 6.08148 11.1433 6.32554C11.4078 6.57022 11.54 6.88964 11.54 7.28378C11.54 7.5518 11.4507 7.8236 11.2721 8.09919C11.0929 8.3754 10.84 8.66329 10.5133 8.96284C10.0467 9.37275 9.70443 9.76689 9.48666 10.1453C9.26888 10.5236 9.15999 10.902 9.15999 11.2804C9.15999 11.5011 9.24181 11.6862 9.40546 11.8357C9.56848 11.9858 9.75888 12.0608 9.97666 12.0608C10.1944 12.0608 10.3889 11.982 10.56 11.8243C10.7311 11.6667 10.84 11.4696 10.8867 11.2331C10.9333 10.9651 11.0385 10.7169 11.2021 10.4886C11.3651 10.2597 11.6333 9.96396 12.0067 9.60135C12.4889 9.14414 12.8274 8.72635 13.0221 8.34797C13.2163 7.96959 13.3133 7.5518 13.3133 7.09459C13.3133 6.29054 13.014 5.63216 12.4155 5.11946C11.8163 4.60739 11.0422 4.35135 10.0933 4.35135C9.43999 4.35135 8.8607 4.47748 8.35546 4.72973C7.84959 4.98198 7.45666 5.36824 7.17666 5.88851C7.06777 6.09347 7.02888 6.29432 7.05999 6.49108C7.0911 6.68847 7.19999 6.85022 7.38666 6.97635C7.58888 7.10248 7.8107 7.14189 8.05212 7.09459C8.29292 7.0473 8.4911 6.91329 8.64666 6.69257C8.81777 6.45608 9.02403 6.27477 9.26546 6.14865C9.50626 6.02252 9.78221 5.95946 10.0933 5.95946ZM9.99999 19.4865C8.72443 19.4865 7.51888 19.238 6.38332 18.7411C5.24777 18.2448 4.25626 17.5709 3.40879 16.7196C2.5607 15.8682 1.89181 14.8671 1.40212 13.7162C0.911812 12.5653 0.666656 11.3356 0.666656 10.027C0.666656 8.71847 0.911812 7.48874 1.40212 6.33784C1.89181 5.18694 2.5607 4.18581 3.40879 3.33446C4.25626 2.48311 5.24777 1.80896 6.38332 1.31203C7.51888 0.815719 8.72443 0.567566 9.99999 0.567566C11.3067 0.567566 12.5278 0.815719 13.6633 1.31203C14.7989 1.80896 15.7867 2.48311 16.6267 3.33446C17.4667 4.18581 18.1278 5.18694 18.61 6.33784C19.0922 7.48874 19.3333 8.71847 19.3333 10.027C19.3333 11.3356 19.0922 12.5653 18.61 13.7162C18.1278 14.8671 17.4667 15.8682 16.6267 16.7196C15.7867 17.5709 14.7989 18.2448 13.6633 18.7411C12.5278 19.238 11.3067 19.4865 9.99999 19.4865Z" fill="#999999"/>
</svg>
